<svg width="15" height="16" viewBox="0 0 15 16" fill="none" xmlns="http://www.w3.org/2000/svg">
<path d="M14.7802 13.0806L10.7977 9.04297H10.0538L8.14526 10.978V11.7322L12.1277 15.7698C12.4208 16.0669 12.8942 16.0669 13.1872 15.7698L14.7802 14.1547C15.0733 13.8653 15.0733 13.3777 14.7802 13.0806Z" fill="#161616"/>
<path d="M11.5266 7.00107L12.5861 5.92691L14.1791 7.54196C15.0582 6.65064 15.0582 5.20319 14.1791 4.31187L11.5191 1.61505L10.4596 2.6892V0.540888L9.93363 0L7.27364 2.69682L7.80714 3.23771H9.93363L8.87414 4.31187L9.67063 5.11939L7.49906 7.32103L4.39574 4.17474V3.09297L2.12649 0.792287L0 2.94822L2.27677 5.25652H3.33626L6.43957 8.40281L5.80088 9.05035H4.20789L0.225423 13.088C-0.0676268 13.3851 -0.0676268 13.865 0.225423 14.1621L1.81841 15.7772C2.11146 16.0743 2.58485 16.0743 2.8779 15.7772L6.86036 11.7396V10.1245L10.7301 6.20117L11.5266 7.00107Z" fill="#161616"/>
</svg>
