<svg width="32" height="32" viewBox="0 0 32 32" fill="none" xmlns="http://www.w3.org/2000/svg">
<rect width="32" height="32" rx="4" fill="#7D7D7D"/>
<path d="M15.9907 9.81763C14.3562 9.81763 12.7888 10.4659 11.633 11.6198C10.4773 12.7737 9.82806 14.3388 9.82806 15.9707C9.82806 17.6025 10.4773 19.1676 11.633 20.3215C12.7888 21.4754 14.3562 22.1237 15.9907 22.1237C17.6251 22.1237 19.1926 21.4754 20.3483 20.3215C21.504 19.1676 22.1533 17.6025 22.1533 15.9707C22.1533 14.3388 21.504 12.7737 20.3483 11.6198C19.1926 10.4659 17.6251 9.81763 15.9907 9.81763ZM15.9907 19.9667C14.9288 19.9667 13.9105 19.5455 13.1597 18.7959C12.4089 18.0462 11.9871 17.0295 11.9871 15.9693C11.9871 14.9092 12.4089 13.8924 13.1597 13.1428C13.9105 12.3931 14.9288 11.972 15.9907 11.972C17.0525 11.972 18.0708 12.3931 18.8216 13.1428C19.5724 13.8924 19.9942 14.9092 19.9942 15.9693C19.9942 17.0295 19.5724 18.0462 18.8216 18.7959C18.0708 19.5455 17.0525 19.9667 15.9907 19.9667Z" fill="white"/>
<path d="M22.3972 11.0259C23.1907 11.0259 23.8339 10.3837 23.8339 9.59145C23.8339 8.79921 23.1907 8.15698 22.3972 8.15698C21.6037 8.15698 20.9605 8.79921 20.9605 9.59145C20.9605 10.3837 21.6037 11.0259 22.3972 11.0259Z" fill="white"/>
<path d="M27.3643 8.13307C27.0558 7.33757 26.5843 6.61515 25.98 6.01205C25.3758 5.40896 24.652 4.93848 23.8552 4.63074C22.9227 4.28125 21.9376 4.09227 20.9418 4.07186C19.6584 4.01597 19.2519 4 15.9973 4C12.7428 4 12.3256 4 11.0529 4.07186C10.0578 4.09123 9.07342 4.28024 8.14216 4.63074C7.34509 4.93813 6.62119 5.40848 6.01688 6.01161C5.41258 6.61475 4.94122 7.33736 4.63305 8.13307C4.28295 9.06402 4.09411 10.0477 4.07463 11.0419C4.01733 12.322 4 12.7279 4 15.9787C4 19.2282 4 19.642 4.07463 20.9155C4.09462 21.9108 4.28254 22.8929 4.63305 23.8257C4.94208 24.6211 5.4139 25.3434 6.01835 25.9465C6.6228 26.5495 7.3466 27.0201 8.14349 27.328C9.07299 27.6915 10.0578 27.8941 11.0555 27.9268C12.339 27.9827 12.7454 28 16 28C19.2546 28 19.6717 28 20.9445 27.9268C21.9402 27.9066 22.9252 27.7181 23.8578 27.3693C24.6545 27.0608 25.378 26.5899 25.9822 25.9867C26.5864 25.3834 27.058 24.661 27.3669 23.8656C27.7175 22.9341 27.9054 21.9521 27.9254 20.9568C27.9827 19.6766 28 19.2708 28 16.02C28 12.7691 28 12.3566 27.9254 11.0832C27.9099 10.0749 27.72 9.07684 27.3643 8.13307ZM25.741 20.817C25.7324 21.5839 25.5922 22.3436 25.3265 23.0632C25.1264 23.5807 24.82 24.0506 24.427 24.4427C24.0341 24.8348 23.5632 25.1405 23.0449 25.34C22.3322 25.6041 21.5793 25.744 20.8192 25.7538C19.5531 25.8124 19.1959 25.827 15.9494 25.827C12.7001 25.827 12.3683 25.827 11.0782 25.7538C10.3184 25.7445 9.56596 25.6045 8.85384 25.34C8.33366 25.1417 7.86095 24.8366 7.46631 24.4444C7.07167 24.0522 6.76389 23.5817 6.56286 23.0632C6.30091 22.3514 6.16079 21.6006 6.14838 20.8423C6.09107 19.5782 6.07774 19.2216 6.07774 15.98C6.07774 12.7372 6.07774 12.4059 6.14838 11.1164C6.15699 10.35 6.29719 9.59071 6.56286 8.87159C6.96935 7.82169 7.80231 6.99534 8.85384 6.59348C9.56631 6.33019 10.3186 6.19024 11.0782 6.17964C12.3456 6.12242 12.7015 6.10645 15.9494 6.10645C19.1972 6.10645 19.5304 6.10645 20.8192 6.17964C21.5794 6.18877 22.3323 6.32877 23.0449 6.59348C23.5632 6.79344 24.034 7.0994 24.4269 7.49172C24.8198 7.88404 25.1262 8.35405 25.3265 8.87159C25.5885 9.58343 25.7286 10.3342 25.741 11.0925C25.7983 12.358 25.813 12.7132 25.813 15.9561C25.813 19.1976 25.813 19.5462 25.7557 20.8184H25.741V20.817Z" fill="white"/>
</svg>
