<svg width="139" height="45" viewBox="0 0 139 45" fill="none" xmlns="http://www.w3.org/2000/svg">
<g clip-path="url(#clip0)">
<path d="M22.6724 45.01C35.1966 45.01 45.3448 34.9367 45.3448 22.505C45.3448 10.0733 35.1966 0 22.6724 0C10.1482 0 0 10.0733 0 22.505C0 34.9367 10.1583 45.01 22.6724 45.01ZM22.6724 4.497C27.4866 4.497 32.1037 6.39532 35.5078 9.77435C38.912 13.1534 40.8244 17.7363 40.8244 22.515H34.814C34.814 19.3186 33.5348 16.2531 31.2578 13.993C28.9808 11.7328 25.8926 10.463 22.6724 10.463C19.4523 10.463 16.364 11.7328 14.087 13.993C11.81 16.2531 10.5308 19.3186 10.5308 22.515H4.53046C4.53046 12.5616 12.6551 4.497 22.6724 4.497Z" fill="white"/>
<path d="M22.6724 0C10.1482 0 0 10.0733 0 22.505C0 34.9367 10.1482 45.01 22.6724 45.01C35.1966 45.01 45.3448 34.9367 45.3448 22.505C45.3448 10.0733 35.1865 0 22.6724 0ZM22.6724 40.513C17.8582 40.513 13.2412 38.6147 9.83699 35.2356C6.43283 31.8566 4.52039 27.2737 4.52039 22.495H10.5308C10.5308 25.6914 11.81 28.7568 14.087 31.017C16.364 33.2772 19.4523 34.547 22.6724 34.547C25.8926 34.547 28.9808 33.2772 31.2578 31.017C33.5348 28.7568 34.814 25.6914 34.814 22.495H40.8144C40.8144 32.4484 32.6898 40.513 22.6724 40.513Z" fill="#FFC83E"/>
<path d="M79.9575 6.49695H84.1557V16.0106C84.1557 18.2891 83.5685 19.9646 82.3939 21.0373C81.216 22.1065 79.4743 22.6462 77.1486 22.6562C74.823 22.6662 73.041 22.1165 71.9134 21.0373C70.7859 19.958 70.2221 18.2791 70.212 16.0106V6.49695H74.4102V16.1005C74.4102 17.1299 74.6216 17.9093 75.0546 18.449C75.4875 18.9886 76.2123 19.2484 77.2392 19.2484C79.0514 19.2484 79.9575 18.1991 79.9575 16.1005V6.49695Z" fill="#161616"/>
<path d="M138.068 6.49695L132.189 16.4403V22.3664H128.031V16.3704L122.151 6.49695H126.913L130.125 12.443L133.397 6.49695H138.068Z" fill="#161616"/>
<path d="M87.75 22.3664V6.49695H91.928L97.6968 16.5303L97.5156 6.49695H101.563V22.3664H97.4954L91.6562 12.1832L91.767 22.3664H87.75Z" fill="#161616"/>
<path d="M66.6682 6.49695V9.95464H59.057V13.0026H65.6614V16.2604H59.057V22.3664H54.8588V6.49695H66.6682Z" fill="#161616"/>
<path d="M105.66 22.3664V6.49695H109.828L115.607 16.5303L115.426 6.49695H119.463V22.3664H115.406L109.567 12.1832L109.677 22.3664H105.66Z" fill="#161616"/>
<path d="M58.9664 35.6276C58.9664 37.5064 58.614 38.9054 57.9093 39.8148C57.2046 40.7242 56.228 41.1839 54.9494 41.1839C54.7139 41.1855 54.4785 41.1722 54.2447 41.1439C54.0385 41.1106 53.8361 41.0571 53.6406 40.984V39.605C54.0482 39.8239 54.5061 39.9341 54.9695 39.9247C55.8622 39.9247 56.5166 39.575 56.9327 38.8754C57.3455 38.1659 57.5569 37.0866 57.5569 35.6276V25.8441H58.9664V35.6276Z" fill="#161616"/>
<path d="M69.2757 41.1938C68.2585 41.2041 67.2503 41.0033 66.3158 40.6042C65.464 40.2227 64.7025 39.6677 64.0808 38.9753C63.4589 38.2627 62.9804 37.4383 62.6713 36.5469C62.3414 35.5848 62.1747 34.5751 62.178 33.5589C62.1704 32.4606 62.3368 31.3679 62.6713 30.321C62.9697 29.3944 63.4601 28.54 64.111 27.8127C64.748 27.104 65.5354 26.5442 66.4165 26.1738C67.3326 25.784 68.3696 25.5942 69.5375 25.5942C70.5305 25.5771 71.5158 25.7714 72.4269 26.1638C73.2616 26.5317 74.0067 27.0736 74.6116 27.7527C75.229 28.4575 75.7011 29.2758 76.0009 30.1611C76.3326 31.1328 76.4959 32.1532 76.4842 33.1791C76.4936 34.2596 76.3339 35.3351 76.011 36.367C75.7144 37.2929 75.2429 38.1544 74.6217 38.9053C74.0004 39.6237 73.2269 40.197 72.3564 40.5842C71.4705 40.9939 70.4335 41.1938 69.2757 41.1938ZM69.3865 26.8633C68.5422 26.8542 67.7065 27.0317 66.94 27.383C66.2449 27.7196 65.6331 28.2041 65.148 28.802C64.647 29.4174 64.271 30.1233 64.0405 30.8806C63.7828 31.7023 63.6538 32.5584 63.6579 33.419C63.6475 34.2501 63.7594 35.0783 63.9902 35.8773C64.2038 36.6277 64.5554 37.3324 65.0271 37.9559C65.497 38.5554 66.0954 39.0436 66.7789 39.385C67.4837 39.7447 68.3092 39.9246 69.2656 39.9246C70.2221 39.9246 71.0376 39.7647 71.7524 39.4349C72.4494 39.1239 73.0657 38.659 73.5545 38.0758C74.0549 37.4669 74.4249 36.763 74.6418 36.0072C74.8931 35.1572 75.0153 34.2748 75.0042 33.389C75.0032 32.5395 74.895 31.6934 74.6821 30.8707C74.4897 30.1211 74.1473 29.4176 73.6753 28.802C73.2138 28.201 72.6175 27.7151 71.9336 27.383C71.2288 27.0432 70.3731 26.8633 69.3865 26.8633Z" fill="#161616"/>
<path d="M79.8064 40.9341V25.8441H83.9544C84.5313 25.8374 85.1056 25.9218 85.6558 26.094C86.1318 26.2476 86.5729 26.492 86.9545 26.8135C87.3071 27.1135 87.586 27.4895 87.77 27.9127C87.9726 28.3548 88.0723 28.8363 88.062 29.3218C88.0618 29.7348 88.0007 30.1455 87.8808 30.541C87.7679 30.9117 87.5908 31.2601 87.3573 31.5703C87.1346 31.8911 86.8549 32.1688 86.5317 32.3898C86.1844 32.6171 85.8087 32.7985 85.4142 32.9294V32.9694C85.8953 33.0122 86.3654 33.1373 86.8035 33.3391C87.2046 33.5271 87.5666 33.7881 87.8707 34.1086C88.1717 34.4289 88.4046 34.8062 88.5553 35.2179C88.7241 35.6617 88.8094 36.1325 88.807 36.607C88.8158 37.2113 88.6957 37.8107 88.4546 38.3658C88.2294 38.8848 87.8927 39.3486 87.468 39.7249C87.0358 40.1218 86.5249 40.4247 85.9679 40.6143C85.3551 40.8351 84.7069 40.9435 84.055 40.9341H79.8064ZM81.2159 27.1333V32.4897H83.1892C83.6632 32.4935 84.135 32.4261 84.5886 32.2898C84.978 32.1652 85.3401 31.9685 85.6558 31.7102C85.9478 31.456 86.1813 31.1425 86.3404 30.7908C86.503 30.4086 86.582 29.9964 86.572 29.5816C86.572 27.9427 85.5551 27.1333 83.5013 27.1333H81.2159ZM81.2159 33.7489V39.6649H83.8335C84.9511 39.6649 85.8169 39.3951 86.421 38.8754C87.025 38.3558 87.327 37.6163 87.327 36.6469C87.327 34.7182 86.0082 33.7489 83.3503 33.7489H81.2159Z" fill="#161616"/>
<path d="M91.6158 38.7255C91.8781 38.9256 92.1617 39.0965 92.4615 39.2351C92.7663 39.3865 93.0828 39.5135 93.4079 39.6149C93.7233 39.7172 94.0465 39.7941 94.3744 39.8447C94.6839 39.8961 94.997 39.9229 95.3107 39.9247C96.4584 39.9247 97.3243 39.7048 97.888 39.2651C98.4518 38.8254 98.7539 38.1858 98.7539 37.3564C98.7631 36.9963 98.6945 36.6385 98.5525 36.3071C98.4012 35.9927 98.1891 35.7108 97.9283 35.4776C97.5982 35.1806 97.237 34.9193 96.8511 34.6982L95.3308 33.8287C94.6764 33.479 94.1227 33.1492 93.6596 32.8394C93.2383 32.5724 92.8555 32.2496 92.5219 31.88C92.2433 31.5693 92.0248 31.2102 91.8776 30.8207C91.7115 30.3433 91.642 29.838 91.6731 29.3338C91.7042 28.8296 91.8353 28.3365 92.0588 27.8827C92.3212 27.4014 92.6852 26.9822 93.126 26.6535C93.5962 26.3027 94.1242 26.0356 94.6865 25.8641C95.3081 25.6851 95.9521 25.5942 96.5994 25.5942C97.7974 25.5942 98.7941 25.7541 99.5996 26.0839V27.6329C98.7035 27.1232 97.6464 26.8634 96.4383 26.8634C96.0065 26.8645 95.5766 26.9216 95.1597 27.0333C94.7858 27.1331 94.4317 27.2953 94.1126 27.513C93.8199 27.7149 93.5787 27.9818 93.4079 28.2924C93.2261 28.6265 93.1358 29.0021 93.1461 29.3817C93.1373 29.7292 93.1953 30.0752 93.3173 30.401C93.4495 30.7022 93.6412 30.9741 93.8811 31.2005C94.1908 31.4873 94.5318 31.7387 94.8979 31.95C95.3208 32.1998 95.8342 32.4896 96.4383 32.8094C97.0122 33.1103 97.5701 33.4405 98.1095 33.7988C98.5425 34.0819 98.9382 34.4176 99.2875 34.7981C99.5908 35.1166 99.83 35.4897 99.9922 35.8974C100.149 36.3128 100.227 36.7531 100.224 37.1965C100.237 37.797 100.11 38.3923 99.8513 38.9353C99.6189 39.4329 99.2618 39.8629 98.8143 40.1845C98.3361 40.5311 97.7965 40.7854 97.2236 40.934C96.5633 41.1066 95.8827 41.1907 95.2 41.1838C94.9136 41.1838 94.6277 41.1637 94.3442 41.1239C94.0057 41.0909 93.6694 41.0375 93.3374 40.964C92.9951 40.884 92.673 40.7941 92.3609 40.6942C92.0997 40.6152 91.8495 40.5044 91.6158 40.3644V38.7255Z" fill="#161616"/>
</g>
<defs>
<clipPath id="clip0">
<rect width="138.068" height="45" fill="white"/>
</clipPath>
</defs>
</svg>
