<svg width="32" height="32" viewBox="0 0 32 32" fill="none" xmlns="http://www.w3.org/2000/svg">
<rect width="32" height="32" rx="4" fill="#7D7D7D"/>
<path d="M27.4497 10.9752C27.6174 10.4126 27.4497 10 26.6568 10H24.0303C23.362 10 23.0566 10.3569 22.8889 10.7489C22.8889 10.7489 21.5535 14.0386 19.6611 16.1716C19.0503 16.7923 18.7712 16.9883 18.4382 16.9883C18.2718 16.9883 18.0298 16.7923 18.0298 16.2297V10.9752C18.0298 10.3001 17.837 10 17.2801 10H13.1528C12.736 10 12.4845 10.3121 12.4845 10.6098C12.4845 11.2486 13.4307 11.3962 13.5277 13.1965V17.102C13.5277 17.9574 13.3756 18.1135 13.0402 18.1135C12.1503 18.1135 9.9849 14.8117 8.69977 11.032C8.44945 10.2976 8.19673 10.0012 7.52602 10.0012H4.90067C4.14971 10.0012 4 10.3581 4 10.7501C4 11.4543 4.88989 14.9387 8.14523 19.5472C10.3155 22.6941 13.3708 24.4 16.1542 24.4C17.8226 24.4 18.0286 24.0213 18.0286 23.368V20.9893C18.0286 20.232 18.1879 20.0795 18.7161 20.0795C19.1042 20.0795 19.7725 20.2779 21.3307 21.7939C23.1105 23.5918 23.4051 24.3988 24.4052 24.3988H27.0305C27.7803 24.3988 28.1552 24.0201 27.9396 23.2724C27.7036 22.5283 26.8533 21.4455 25.725 20.1642C25.1118 19.4334 24.1956 18.647 23.9165 18.2538C23.5273 17.7469 23.6398 17.523 23.9165 17.073C23.9177 17.0742 27.1168 12.5226 27.4497 10.9752Z" fill="white"/>
</svg>
